<svg width="512" height="512" viewBox="0 0 512 512" fill="none" xmlns="http://www.w3.org/2000/svg">
<path fill-rule="evenodd" clip-rule="evenodd" d="M255.956 0.0127999C233.162 55.8841 219.415 92.4302 194.037 146.635C209.596 163.125 224.983 179.455 256 201.143C222.654 187.424 203.621 176.524 186.623 162.232C154.146 229.989 103.261 326.505 0 512C81.1595 465.156 137.671 436.276 196.307 425.255C193.789 414.429 192.357 402.719 192.455 390.5L192.544 387.9C193.832 335.915 227.849 292.642 259.318 292.571C290.787 292.501 321.389 345.735 320.101 397.721C319.859 407.503 318.755 416.913 316.827 425.641C374.823 436.984 431.939 465.79 512 512C496.213 482.943 482.123 456.75 468.667 431.803C447.471 415.378 429.096 397.999 384 374.857C414.996 382.91 433.457 388.203 450.756 398.587C313.948 143.921 302.873 110.079 255.952 0L255.956 0.0127999Z" fill="#C6262E"/>
<path opacity="0.2" fill-rule="evenodd" clip-rule="evenodd" d="M255.964 0.0357056C233.175 55.8972 219.41 92.4437 194.036 146.643C194.953 147.615 195.92 148.599 196.839 149.571C220.295 98.918 234.108 62.7532 255.964 9.17856C301.982 117.138 314.241 153.031 443.821 394.732C446.169 395.942 448.469 397.22 450.75 398.589C313.959 143.956 302.871 110.081 255.964 0.0357056ZM186.625 162.232C154.147 229.989 103.261 326.505 0 512C2.55137 510.527 4.87152 509.223 7.375 507.786C105.107 331.953 155.026 237.299 186.625 171.375C203.623 185.667 222.654 196.567 256 210.286C244.525 202.262 235.639 195.14 227.643 188.304C210.723 179.901 198.019 171.812 186.625 162.232ZM384 384C429.096 407.142 447.465 424.522 468.661 440.946C479.899 461.783 492.115 484.411 504.857 507.929C507.28 509.319 509.535 510.577 512 512C496.213 482.943 482.116 456.75 468.661 431.804C453.4 419.978 439.45 407.627 416.089 393.018C406.845 390.119 396.643 387.285 384 384ZM192.589 396.304C192.582 396.55 192.542 396.788 192.536 397.036L192.446 399.643C192.375 408.635 193.145 417.351 194.554 425.643C195.137 425.53 195.719 425.36 196.304 425.25C194.189 416.155 192.909 406.423 192.589 396.304ZM320 399.107C319.69 408.38 318.656 417.338 316.821 425.643C317.309 425.738 317.798 425.884 318.286 425.982C319.225 419.808 319.944 413.467 320.107 406.857C320.171 404.275 320.09 401.689 320 399.107Z" fill="white"/>
</svg>
